<svg width="16" height="16" viewBox="0 0 16 16" fill="none" xmlns="http://www.w3.org/2000/svg">
<path fill-rule="evenodd" clip-rule="evenodd" d="M2.9338 4.42415C3.47388 3.88424 4.20629 3.58093 4.96996 3.58093C5.73363 3.58093 6.46604 3.88424 7.00612 4.42415L7.84996 5.26727L8.6938 4.42415C8.95947 4.14908 9.27726 3.92968 9.62863 3.77874C9.98 3.6278 10.3579 3.54835 10.7403 3.54503C11.1227 3.54171 11.502 3.61458 11.8559 3.75939C12.2098 3.90419 12.5314 4.11804 12.8018 4.38845C13.0722 4.65887 13.2861 4.98042 13.4309 5.33436C13.5757 5.68831 13.6486 6.06754 13.6452 6.44995C13.6419 6.83235 13.5625 7.21027 13.4115 7.56164C13.2606 7.91301 13.0412 8.2308 12.7661 8.49647L7.84996 13.4134L2.9338 8.49647C2.39388 7.95639 2.09058 7.22398 2.09058 6.46031C2.09058 5.69664 2.39388 4.96423 2.9338 4.42415Z" fill="white"/>
</svg>
