<svg width="16" height="16" viewBox="0 0 16 16" fill="none" xmlns="http://www.w3.org/2000/svg">
<path fill-rule="evenodd" clip-rule="evenodd" d="M2.93392 4.42391C3.474 3.88399 4.20641 3.58068 4.97008 3.58068C5.73375 3.58068 6.46616 3.88399 7.00624 4.42391L7.85008 5.26703L8.69392 4.42391C8.95959 4.14884 9.27738 3.92943 9.62876 3.7785C9.98013 3.62756 10.358 3.54811 10.7404 3.54479C11.1228 3.54146 11.5021 3.61433 11.856 3.75914C12.21 3.90395 12.5315 4.1178 12.8019 4.38821C13.0723 4.65862 13.2862 4.98018 13.431 5.33412C13.5758 5.68806 13.6487 6.0673 13.6454 6.4497C13.642 6.83211 13.5626 7.21002 13.4117 7.56139C13.2607 7.91276 13.0413 8.23056 12.7662 8.49623L7.85008 13.4131L2.93392 8.49623C2.39401 7.95615 2.0907 7.22374 2.0907 6.46007C2.0907 5.69639 2.39401 4.96399 2.93392 4.42391V4.42391Z" stroke="white" stroke-linejoin="round"/>
</svg>
