<svg width="16" height="16" viewBox="0 0 16 16" fill="none" xmlns="http://www.w3.org/2000/svg">
<path d="M4.00001 10.6667C7.33334 10.6667 8.66668 5.33337 12 5.33337C12.7073 5.33337 13.3855 5.61433 13.8856 6.11442C14.3857 6.61452 14.6667 7.2928 14.6667 8.00004C14.6667 8.70728 14.3857 9.38556 13.8856 9.88566C13.3855 10.3858 12.7073 10.6667 12 10.6667C8.66668 10.6667 7.33334 5.33337 4.00001 5.33337C3.29277 5.33337 2.61449 5.61433 2.11439 6.11442C1.6143 6.61452 1.33334 7.2928 1.33334 8.00004C1.33334 8.70728 1.6143 9.38556 2.11439 9.88566C2.61449 10.3858 3.29277 10.6667 4.00001 10.6667Z" stroke="#473287" stroke-linecap="round" stroke-linejoin="round"/>
</svg>
