<svg width="22" height="22" viewBox="0 0 22 22" fill="none" xmlns="http://www.w3.org/2000/svg">
<path d="M18.7736 4.19856L20.625 2.34713L19.6529 1.375L17.8014 3.22644L17.05 2.475C16.9259 2.34462 16.7766 2.24082 16.6111 2.1699C16.4457 2.09897 16.2675 2.0624 16.0875 2.0624C15.9075 2.0624 15.7293 2.09897 15.5639 2.1699C15.3984 2.24082 15.2491 2.34462 15.125 2.475L2.75 14.85V19.25H7.15L19.525 6.875C19.6554 6.75088 19.7592 6.60156 19.8301 6.4361C19.901 6.27065 19.9376 6.09251 19.9376 5.9125C19.9376 5.73249 19.901 5.55435 19.8301 5.3889C19.7592 5.22344 19.6554 5.07412 19.525 4.95L18.7736 4.19856ZM6.6 17.875H4.125V15.4L16.0875 3.4375L18.5625 5.9125L6.6 17.875ZM6.1875 7.96538L11.4029 2.75L12.375 3.72213L7.15962 8.9375L6.1875 7.96538Z" fill="white" fill-opacity="0.5"/>
</svg>
