<svg width="24" height="24" viewBox="0 0 24 24" fill="none" xmlns="http://www.w3.org/2000/svg">
<path d="M12.1319 15.404C12.5737 15.404 13.0112 15.317 13.4193 15.148C13.8274 14.9789 14.1983 14.7311 14.5107 14.4187C14.823 14.1064 15.0708 13.7355 15.2399 13.3274C15.4089 12.9192 15.4959 12.4818 15.4959 12.04C15.4959 11.5983 15.4089 11.1608 15.2399 10.7527C15.0708 10.3445 14.823 9.9737 14.5107 9.66132C14.1983 9.34894 13.8274 9.10115 13.4193 8.93209C13.0112 8.76304 12.5737 8.67603 12.1319 8.67603C11.2398 8.67603 10.3841 9.03045 9.75324 9.66132C9.12237 10.2922 8.76794 11.1478 8.76794 12.04C8.76794 12.9322 9.12237 13.7879 9.75324 14.4187C10.3841 15.0496 11.2398 15.404 12.1319 15.404Z" stroke="white" stroke-width="1.5" stroke-linecap="round" stroke-linejoin="round"/>
<path d="M20.983 15.094C20.5868 16.2334 19.975 17.2859 19.181 18.194L17.057 17.712C16.2514 18.4345 15.2944 18.9676 14.256 19.272L13.682 21.351C13.1439 21.4475 12.5986 21.4973 12.052 21.5C11.3681 21.5008 10.6864 21.4236 10.02 21.27L9.41097 19.124C8.50335 18.7895 7.66902 18.2825 6.95397 17.631L4.85397 18.171C4.02114 17.1978 3.39602 16.0646 3.01697 14.841L4.56697 13.119C4.4255 12.2384 4.4489 11.3391 4.63597 10.467L3.10697 8.87202C3.55144 7.62092 4.2559 6.47817 5.17397 5.51902L7.34397 6.05902C7.94149 5.57993 8.60716 5.19267 9.31897 4.91002L9.89297 2.78602C10.6019 2.60242 11.3307 2.50604 12.063 2.49902C12.648 2.49902 13.233 2.55302 13.808 2.65902L14.359 4.77202C15.189 5.04102 15.967 5.45202 16.655 5.98902L18.837 5.42602C19.7173 6.31326 20.4118 7.36714 20.88 8.52602L19.4 10.133C19.6806 11.2343 19.7039 12.3853 19.468 13.497L20.983 15.094Z" stroke="white" stroke-width="1.5" stroke-linecap="round" stroke-linejoin="round"/>
</svg>
