<svg width="402" height="254" viewBox="0 0 402 254" fill="none" xmlns="http://www.w3.org/2000/svg">
<g filter="url(#filter0_di_1178_3382)">
<path d="M94.3323 96.4452C94.0562 94.5976 95.6287 93.0011 97.4802 93.2493L204.872 107.643C206.358 107.842 207.425 109.174 207.295 110.668L205.028 136.582C204.888 138.18 203.439 139.336 201.85 139.118L100.673 125.222C99.439 125.052 98.4643 124.089 98.2801 122.857L94.3323 96.4452Z" fill="#FF7B01"/>
</g>
<g filter="url(#filter1_di_1178_3382)">
<path d="M73.0977 73.4132C72.8216 71.5656 74.3941 69.9691 76.2456 70.2173L183.638 84.6107C185.124 84.8099 186.191 86.1425 186.06 87.6363L183.793 113.55C183.653 115.148 182.205 116.304 180.616 116.086L79.4388 102.19C78.2044 102.02 77.2296 101.057 77.0454 99.8247L73.0977 73.4132Z" fill="#FFA001"/>
</g>
<g filter="url(#filter2_di_1178_3382)">
<path d="M52.4388 43.8152C52.1626 41.9676 53.7351 40.3711 55.5866 40.6193L162.979 55.0126C164.465 55.2118 165.532 56.5444 165.401 58.0383L163.134 83.9524C162.994 85.5502 161.546 86.706 159.957 86.4877L58.7798 72.5917C57.5455 72.4222 56.5707 71.459 56.3865 70.2267L52.4388 43.8152Z" fill="#FECC50"/>
</g>
<g filter="url(#filter3_di_1178_3382)">
<path d="M307.668 96.4452C307.944 94.5976 306.372 93.0011 304.52 93.2493L197.128 107.643C195.642 107.842 194.575 109.174 194.705 110.668L196.973 136.582C197.112 138.18 198.561 139.336 200.15 139.118L301.327 125.222C302.561 125.052 303.536 124.089 303.72 122.857L307.668 96.4452Z" fill="#FF7B01"/>
</g>
<g filter="url(#filter4_di_1178_3382)">
<path d="M328.902 73.4133C329.178 71.5658 327.606 69.9693 325.754 70.2174L218.362 84.6108C216.876 84.81 215.809 86.1426 215.94 87.6364L218.207 113.551C218.347 115.148 219.795 116.304 221.384 116.086L322.561 102.19C323.795 102.02 324.77 101.057 324.954 99.8248L328.902 73.4133Z" fill="#FFA001"/>
</g>
<g filter="url(#filter5_di_1178_3382)">
<path d="M349.561 43.8153C349.837 41.9677 348.265 40.3712 346.413 40.6194L239.021 55.0128C237.535 55.212 236.468 56.5446 236.599 58.0384L238.866 83.9526C239.006 85.5504 240.454 86.7061 242.043 86.4879L343.22 72.5919C344.454 72.4223 345.429 71.4591 345.613 70.2268L349.561 43.8153Z" fill="#FECC50"/>
</g>
<g filter="url(#filter6_d_1178_3382)">
<mask id="mask0_1178_3382" style="mask-type:alpha" maskUnits="userSpaceOnUse" x="163" y="12" width="78" height="78">
<path d="M200.005 12.9841C201.101 11.8883 202.878 11.8883 203.973 12.9841L221.989 31L240.005 49.0159C241.101 50.1117 241.101 51.8883 240.005 52.9841L221.989 71L203.973 89.0159C202.878 90.1117 201.101 90.1117 200.005 89.0159L181.989 71L163.973 52.9841C162.878 51.8883 162.878 50.1117 163.973 49.0159L181.989 31L200.005 12.9841Z" fill="#C4C4C4"/>
</mask>
<g mask="url(#mask0_1178_3382)">
<path d="M201.989 91V11L161.989 51L201.989 91Z" fill="#FFD0F5"/>
<path d="M201.989 11V91L241.989 51L201.989 11Z" fill="#FF97F1"/>
<path d="M281.989 91L241.989 51L201.989 91H281.989Z" fill="#FFD0F5"/>
<path d="M121.989 91H201.989L161.989 51L121.989 91Z" fill="#FFD0F5"/>
</g>
</g>
<g filter="url(#filter7_d_1178_3382)">
<mask id="mask1_1178_3382" style="mask-type:alpha" maskUnits="userSpaceOnUse" x="203" y="52" width="78" height="78">
<path d="M280.079 88.9423C281.175 90.0381 281.175 91.8147 280.079 92.9105L262.063 110.926L244.047 128.942C242.951 130.038 241.175 130.038 240.079 128.942L222.063 110.926L204.047 92.9105C202.951 91.8147 202.951 90.0381 204.047 88.9423L222.063 70.9264L240.079 52.9105C241.175 51.8147 242.951 51.8147 244.047 52.9105L262.063 70.9264L280.079 88.9423Z" fill="#C4C4C4"/>
</mask>
<g mask="url(#mask1_1178_3382)">
<path d="M202.063 90.926L282.063 90.926L242.063 50.926L202.063 90.926Z" fill="#FFD0F5"/>
<path d="M282.063 90.926L202.063 90.926L242.063 130.926L282.063 90.926Z" fill="#FF97F1"/>
<path d="M202.063 170.926L242.063 130.926L202.063 90.926L202.063 170.926Z" fill="#FFD0F5"/>
<path d="M202.063 10.926L202.063 90.926L242.063 50.926L202.063 10.926Z" fill="#FFD0F5"/>
</g>
</g>
<g filter="url(#filter8_d_1178_3382)">
<mask id="mask2_1178_3382" style="mask-type:alpha" maskUnits="userSpaceOnUse" x="163" y="92" width="78" height="78">
<path d="M204.121 169.016C203.025 170.112 201.248 170.112 200.153 169.016L182.137 151L164.121 132.984C163.025 131.888 163.025 130.112 164.121 129.016L182.137 111L200.153 92.9841C201.248 91.8883 203.025 91.8883 204.121 92.9841L222.137 111L240.153 129.016C241.248 130.112 241.248 131.888 240.153 132.984L222.137 151L204.121 169.016Z" fill="#C4C4C4"/>
</mask>
<g mask="url(#mask2_1178_3382)">
<path d="M202.137 91L202.137 171L242.137 131L202.137 91Z" fill="#FFD0F5"/>
<path d="M202.137 171L202.137 91L162.137 131L202.137 171Z" fill="#FF97F1"/>
<path d="M122.137 91L162.137 131L202.137 91L122.137 91Z" fill="#FFD0F5"/>
<path d="M282.137 91L202.137 91L242.137 131L282.137 91Z" fill="#FFD0F5"/>
</g>
</g>
<g filter="url(#filter9_d_1178_3382)">
<mask id="mask3_1178_3382" style="mask-type:alpha" maskUnits="userSpaceOnUse" x="123" y="52" width="78" height="78">
<path d="M124.047 93.0577C122.951 91.9619 122.951 90.1853 124.047 89.0895L142.063 71.0736L160.079 53.0577C161.175 51.9619 162.951 51.9619 164.047 53.0577L182.063 71.0736L200.079 89.0895C201.175 90.1853 201.175 91.9619 200.079 93.0577L182.063 111.074L164.047 129.09C162.951 130.185 161.175 130.185 160.079 129.089L142.063 111.074L124.047 93.0577Z" fill="#C4C4C4"/>
</mask>
<g mask="url(#mask3_1178_3382)">
<path d="M202.063 91.074L122.063 91.074L162.063 131.074L202.063 91.074Z" fill="#FFD0F5"/>
<path d="M122.063 91.074L202.063 91.074L162.063 51.074L122.063 91.074Z" fill="#FF97F1"/>
<path d="M202.063 11.074L162.063 51.074L202.063 91.074L202.063 11.074Z" fill="#FFD0F5"/>
<path d="M202.063 171.074L202.063 91.074L162.063 131.074L202.063 171.074Z" fill="#FFD0F5"/>
</g>
</g>
<g filter="url(#filter10_d_1178_3382)">
<circle cx="202.063" cy="91" r="67.3431" fill="url(#paint0_linear_1178_3382)"/>
<circle cx="202.063" cy="90.9998" r="64.5372" fill="url(#paint1_linear_1178_3382)"/>
<circle cx="202.063" cy="91.0001" r="54.7163" fill="url(#paint2_linear_1178_3382)"/>
<g filter="url(#filter11_i_1178_3382)">
<circle cx="202.063" cy="91.0007" r="51.9103" fill="url(#paint3_radial_1178_3382)"/>
<circle cx="202.063" cy="91.0007" r="51.9103" fill="url(#paint4_radial_1178_3382)"/>
</g>
<path d="M201.234 57.6211C201.631 57.034 202.495 57.034 202.892 57.6211L225.058 90.4406C225.287 90.7788 225.287 91.2218 225.058 91.56L202.892 124.379C202.495 124.967 201.631 124.967 201.234 124.379L179.067 91.56C178.839 91.2218 178.839 90.7788 179.067 90.4406L201.234 57.6211Z" fill="#7B33D1" fill-opacity="0.49"/>
<path d="M202.062 62.1624L182.814 91.0008H193.813L202.062 78.0235V62.1624Z" fill="url(#paint5_linear_1178_3382)"/>
<path d="M221.311 91.0008L202.062 62.1624V78.0235L210.312 91.0008H221.311Z" fill="url(#paint6_linear_1178_3382)"/>
<path d="M202.062 119.839L221.311 91.0008H210.312L202.062 103.978V119.839Z" fill="url(#paint7_linear_1178_3382)"/>
<path d="M182.814 91.0008L202.062 119.839V103.978L193.813 91.0008H182.814Z" fill="url(#paint8_linear_1178_3382)"/>
<path d="M210.312 91.0008L202.062 78.0235L193.813 91.0008L202.062 103.978L210.312 91.0008Z" fill="white"/>
</g>
<ellipse cx="201" cy="171" rx="200.626" ry="24.5522" fill="url(#paint9_radial_1178_3382)"/>
<ellipse cx="201" cy="171" rx="129.074" ry="4.91044" fill="url(#paint10_radial_1178_3382)"/>
<g filter="url(#filter12_d_1178_3382)">
<mask id="path-39-outside-1_1178_3382" maskUnits="userSpaceOnUse" x="123.374" y="155" width="156" height="43" fill="black">
<rect fill="white" x="123.374" y="155" width="156" height="43"/>
<path d="M134.314 196L125.626 157.12H130.714L136.858 185.776L142.714 157.12H147.658L139.066 196H134.314ZM152.068 196V157.12H157.396V196H152.068ZM173.431 196.432C170.679 196.432 168.535 195.856 166.999 194.704C165.495 193.552 164.439 192 163.831 190.048C163.255 188.096 162.967 185.92 162.967 183.52V169.792C162.967 167.168 163.255 164.88 163.831 162.928C164.439 160.976 165.495 159.472 166.999 158.416C168.535 157.328 170.679 156.784 173.431 156.784C175.863 156.784 177.783 157.232 179.191 158.128C180.631 159.024 181.655 160.304 182.263 161.968C182.903 163.632 183.223 165.632 183.223 167.968V171.04H178.087V168.304C178.087 166.864 178.007 165.6 177.847 164.512C177.719 163.392 177.335 162.528 176.695 161.92C176.055 161.312 174.983 161.008 173.479 161.008C171.943 161.008 170.823 161.344 170.119 162.016C169.415 162.656 168.951 163.584 168.727 164.8C168.535 165.984 168.439 167.376 168.439 168.976V184.384C168.439 186.336 168.599 187.888 168.919 189.04C169.239 190.16 169.767 190.96 170.503 191.44C171.239 191.92 172.231 192.16 173.479 192.16C174.951 192.16 176.007 191.84 176.647 191.2C177.287 190.528 177.687 189.616 177.847 188.464C178.007 187.312 178.087 185.968 178.087 184.432V181.552H183.223V184.432C183.223 186.8 182.935 188.896 182.359 190.72C181.783 192.512 180.791 193.92 179.383 194.944C177.975 195.936 175.991 196.432 173.431 196.432ZM192.662 196V161.152H186.086V157.12H204.47V161.152H198.086V196H192.662ZM218.013 196.432C215.389 196.432 213.293 195.92 211.725 194.896C210.157 193.872 209.037 192.416 208.365 190.528C207.693 188.608 207.357 186.368 207.357 183.808V169.072C207.357 166.512 207.693 164.32 208.365 162.496C209.069 160.64 210.189 159.232 211.725 158.272C213.293 157.28 215.389 156.784 218.013 156.784C220.637 156.784 222.717 157.28 224.253 158.272C225.789 159.264 226.893 160.672 227.565 162.496C228.269 164.32 228.621 166.512 228.621 169.072V183.856C228.621 186.384 228.269 188.592 227.565 190.48C226.893 192.368 225.789 193.84 224.253 194.896C222.717 195.92 220.637 196.432 218.013 196.432ZM218.013 192.16C219.453 192.16 220.541 191.872 221.277 191.296C222.013 190.688 222.509 189.856 222.765 188.8C223.021 187.712 223.149 186.448 223.149 185.008V167.968C223.149 166.528 223.021 165.296 222.765 164.272C222.509 163.216 222.013 162.416 221.277 161.872C220.541 161.296 219.453 161.008 218.013 161.008C216.573 161.008 215.469 161.296 214.701 161.872C213.965 162.416 213.469 163.216 213.213 164.272C212.957 165.296 212.829 166.528 212.829 167.968V185.008C212.829 186.448 212.957 187.712 213.213 188.8C213.469 189.856 213.965 190.688 214.701 191.296C215.469 191.872 216.573 192.16 218.013 192.16ZM233.952 196V157.12H241.776C244.368 157.12 246.512 157.472 248.208 158.176C249.904 158.848 251.152 159.952 251.952 161.488C252.784 162.992 253.2 164.976 253.2 167.44C253.2 168.944 253.04 170.32 252.72 171.568C252.4 172.784 251.888 173.824 251.184 174.688C250.48 175.52 249.552 176.128 248.4 176.512L253.92 196H248.688L243.6 177.76H239.376V196H233.952ZM239.376 173.872H241.44C242.976 173.872 244.224 173.68 245.184 173.296C246.144 172.912 246.848 172.256 247.296 171.328C247.744 170.4 247.968 169.104 247.968 167.44C247.968 165.168 247.552 163.536 246.72 162.544C245.888 161.52 244.24 161.008 241.776 161.008H239.376V173.872ZM264.092 196V182.272L255.692 157.12H260.732L266.684 175.888L272.54 157.12H277.628L269.276 182.272V196H264.092Z"/>
</mask>
<path d="M134.314 196L125.626 157.12H130.714L136.858 185.776L142.714 157.12H147.658L139.066 196H134.314ZM152.068 196V157.12H157.396V196H152.068ZM173.431 196.432C170.679 196.432 168.535 195.856 166.999 194.704C165.495 193.552 164.439 192 163.831 190.048C163.255 188.096 162.967 185.92 162.967 183.52V169.792C162.967 167.168 163.255 164.88 163.831 162.928C164.439 160.976 165.495 159.472 166.999 158.416C168.535 157.328 170.679 156.784 173.431 156.784C175.863 156.784 177.783 157.232 179.191 158.128C180.631 159.024 181.655 160.304 182.263 161.968C182.903 163.632 183.223 165.632 183.223 167.968V171.04H178.087V168.304C178.087 166.864 178.007 165.6 177.847 164.512C177.719 163.392 177.335 162.528 176.695 161.92C176.055 161.312 174.983 161.008 173.479 161.008C171.943 161.008 170.823 161.344 170.119 162.016C169.415 162.656 168.951 163.584 168.727 164.8C168.535 165.984 168.439 167.376 168.439 168.976V184.384C168.439 186.336 168.599 187.888 168.919 189.04C169.239 190.16 169.767 190.96 170.503 191.44C171.239 191.92 172.231 192.16 173.479 192.16C174.951 192.16 176.007 191.84 176.647 191.2C177.287 190.528 177.687 189.616 177.847 188.464C178.007 187.312 178.087 185.968 178.087 184.432V181.552H183.223V184.432C183.223 186.8 182.935 188.896 182.359 190.72C181.783 192.512 180.791 193.92 179.383 194.944C177.975 195.936 175.991 196.432 173.431 196.432ZM192.662 196V161.152H186.086V157.12H204.47V161.152H198.086V196H192.662ZM218.013 196.432C215.389 196.432 213.293 195.92 211.725 194.896C210.157 193.872 209.037 192.416 208.365 190.528C207.693 188.608 207.357 186.368 207.357 183.808V169.072C207.357 166.512 207.693 164.32 208.365 162.496C209.069 160.64 210.189 159.232 211.725 158.272C213.293 157.28 215.389 156.784 218.013 156.784C220.637 156.784 222.717 157.28 224.253 158.272C225.789 159.264 226.893 160.672 227.565 162.496C228.269 164.32 228.621 166.512 228.621 169.072V183.856C228.621 186.384 228.269 188.592 227.565 190.48C226.893 192.368 225.789 193.84 224.253 194.896C222.717 195.92 220.637 196.432 218.013 196.432ZM218.013 192.16C219.453 192.16 220.541 191.872 221.277 191.296C222.013 190.688 222.509 189.856 222.765 188.8C223.021 187.712 223.149 186.448 223.149 185.008V167.968C223.149 166.528 223.021 165.296 222.765 164.272C222.509 163.216 222.013 162.416 221.277 161.872C220.541 161.296 219.453 161.008 218.013 161.008C216.573 161.008 215.469 161.296 214.701 161.872C213.965 162.416 213.469 163.216 213.213 164.272C212.957 165.296 212.829 166.528 212.829 167.968V185.008C212.829 186.448 212.957 187.712 213.213 188.8C213.469 189.856 213.965 190.688 214.701 191.296C215.469 191.872 216.573 192.16 218.013 192.16ZM233.952 196V157.12H241.776C244.368 157.12 246.512 157.472 248.208 158.176C249.904 158.848 251.152 159.952 251.952 161.488C252.784 162.992 253.2 164.976 253.2 167.44C253.2 168.944 253.04 170.32 252.72 171.568C252.4 172.784 251.888 173.824 251.184 174.688C250.48 175.52 249.552 176.128 248.4 176.512L253.92 196H248.688L243.6 177.76H239.376V196H233.952ZM239.376 173.872H241.44C242.976 173.872 244.224 173.68 245.184 173.296C246.144 172.912 246.848 172.256 247.296 171.328C247.744 170.4 247.968 169.104 247.968 167.44C247.968 165.168 247.552 163.536 246.72 162.544C245.888 161.52 244.24 161.008 241.776 161.008H239.376V173.872ZM264.092 196V182.272L255.692 157.12H260.732L266.684 175.888L272.54 157.12H277.628L269.276 182.272V196H264.092Z" fill="white"/>
<path d="M134.314 196L132.945 196.306C133.088 196.947 133.657 197.403 134.314 197.403V196ZM125.626 157.12V155.717C125.2 155.717 124.797 155.91 124.531 156.243C124.265 156.575 124.164 157.01 124.257 157.426L125.626 157.12ZM130.714 157.12L132.086 156.826C131.947 156.179 131.375 155.717 130.714 155.717V157.12ZM136.858 185.776L135.486 186.07C135.625 186.719 136.201 187.182 136.865 187.179C137.529 187.176 138.1 186.707 138.233 186.057L136.858 185.776ZM142.714 157.12V155.717C142.047 155.717 141.473 156.186 141.339 156.839L142.714 157.12ZM147.658 157.12L149.028 157.423C149.12 157.007 149.018 156.573 148.752 156.241C148.486 155.91 148.083 155.717 147.658 155.717V157.12ZM139.066 196V197.403C139.724 197.403 140.294 196.945 140.436 196.303L139.066 196ZM134.314 196L135.683 195.694L126.995 156.814L125.626 157.12L124.257 157.426L132.945 196.306L134.314 196ZM125.626 157.12V158.523H130.714V157.12V155.717H125.626V157.12ZM130.714 157.12L129.342 157.414L135.486 186.07L136.858 185.776L138.23 185.482L132.086 156.826L130.714 157.12ZM136.858 185.776L138.233 186.057L144.089 157.401L142.714 157.12L141.339 156.839L135.483 185.495L136.858 185.776ZM142.714 157.12V158.523H147.658V157.12V155.717H142.714V157.12ZM147.658 157.12L146.288 156.817L137.696 195.697L139.066 196L140.436 196.303L149.028 157.423L147.658 157.12ZM139.066 196V194.597H134.314V196V197.403H139.066V196ZM152.068 196H150.665C150.665 196.775 151.294 197.403 152.068 197.403V196ZM152.068 157.12V155.717C151.294 155.717 150.665 156.345 150.665 157.12H152.068ZM157.396 157.12H158.799C158.799 156.345 158.171 155.717 157.396 155.717V157.12ZM157.396 196V197.403C158.171 197.403 158.799 196.775 158.799 196H157.396ZM152.068 196H153.471V157.12H152.068H150.665V196H152.068ZM152.068 157.12V158.523H157.396V157.12V155.717H152.068V157.12ZM157.396 157.12H155.993V196H157.396H158.799V157.12H157.396ZM157.396 196V194.597H152.068V196V197.403H157.396V196ZM166.999 194.704L166.145 195.818C166.149 195.821 166.153 195.824 166.157 195.826L166.999 194.704ZM163.831 190.048L162.485 190.445C162.487 190.452 162.489 190.459 162.491 190.465L163.831 190.048ZM163.831 162.928L162.491 162.511C162.489 162.517 162.487 162.524 162.485 162.531L163.831 162.928ZM166.999 158.416L167.805 159.564L167.81 159.561L166.999 158.416ZM179.191 158.128L178.437 159.312C178.441 159.314 178.445 159.317 178.449 159.319L179.191 158.128ZM182.263 161.968L180.945 162.449C180.948 162.457 180.95 162.464 180.953 162.472L182.263 161.968ZM183.223 171.04V172.443C183.997 172.443 184.626 171.815 184.626 171.04H183.223ZM178.087 171.04H176.684C176.684 171.815 177.312 172.443 178.087 172.443V171.04ZM177.847 164.512L176.453 164.671C176.454 164.686 176.456 164.701 176.459 164.716L177.847 164.512ZM176.695 161.92L177.661 160.903L177.661 160.903L176.695 161.92ZM170.119 162.016L171.062 163.054C171.071 163.046 171.079 163.039 171.087 163.031L170.119 162.016ZM168.727 164.8L167.347 164.546C167.345 164.556 167.343 164.566 167.342 164.575L168.727 164.8ZM168.919 189.04L167.567 189.416L167.57 189.425L168.919 189.04ZM176.647 191.2L177.639 192.192C177.647 192.184 177.655 192.176 177.663 192.168L176.647 191.2ZM178.087 181.552V180.149C177.312 180.149 176.684 180.777 176.684 181.552H178.087ZM183.223 181.552H184.626C184.626 180.777 183.997 180.149 183.223 180.149V181.552ZM182.359 190.72L183.694 191.149L183.696 191.142L182.359 190.72ZM179.383 194.944L180.191 196.091C180.196 196.087 180.202 196.083 180.208 196.079L179.383 194.944ZM173.431 196.432V195.029C170.855 195.029 169.048 194.488 167.84 193.582L166.999 194.704L166.157 195.826C168.021 197.224 170.502 197.835 173.431 197.835V196.432ZM166.999 194.704L167.852 193.59C166.596 192.629 165.699 191.329 165.17 189.631L163.831 190.048L162.491 190.465C163.178 192.671 164.393 194.475 166.145 195.818L166.999 194.704ZM163.831 190.048L165.176 189.651C164.644 187.849 164.37 185.809 164.37 183.52H162.967H161.564C161.564 186.031 161.865 188.343 162.485 190.445L163.831 190.048ZM162.967 183.52H164.37V169.792H162.967H161.564V183.52H162.967ZM162.967 169.792H164.37C164.37 167.266 164.647 165.117 165.176 163.325L163.831 162.928L162.485 162.531C161.862 164.643 161.564 167.07 161.564 169.792H162.967ZM163.831 162.928L165.17 163.345C165.697 161.654 166.583 160.422 167.805 159.564L166.999 158.416L166.192 157.268C164.406 158.522 163.18 160.298 162.491 162.511L163.831 162.928ZM166.999 158.416L167.81 159.561C169.022 158.702 170.841 158.187 173.431 158.187V156.784V155.381C170.516 155.381 168.047 155.954 166.188 157.271L166.999 158.416ZM173.431 156.784V158.187C175.711 158.187 177.335 158.61 178.437 159.312L179.191 158.128L179.944 156.944C178.23 155.854 176.014 155.381 173.431 155.381V156.784ZM179.191 158.128L178.449 159.319C179.611 160.042 180.439 161.066 180.945 162.449L182.263 161.968L183.58 161.487C182.87 159.542 181.65 158.006 179.932 156.937L179.191 158.128ZM182.263 161.968L180.953 162.472C181.515 163.934 181.82 165.754 181.82 167.968H183.223H184.626C184.626 165.51 184.29 163.33 183.572 161.464L182.263 161.968ZM183.223 167.968H181.82V171.04H183.223H184.626V167.968H183.223ZM183.223 171.04V169.637H178.087V171.04V172.443H183.223V171.04ZM178.087 171.04H179.49V168.304H178.087H176.684V171.04H178.087ZM178.087 168.304H179.49C179.49 166.815 179.407 165.48 179.235 164.308L177.847 164.512L176.459 164.716C176.606 165.72 176.684 166.913 176.684 168.304H178.087ZM177.847 164.512L179.241 164.353C179.086 162.998 178.6 161.795 177.661 160.903L176.695 161.92L175.728 162.937C176.07 163.261 176.352 163.786 176.453 164.671L177.847 164.512ZM176.695 161.92L177.661 160.903C176.629 159.922 175.107 159.605 173.479 159.605V161.008V162.411C174.858 162.411 175.48 162.702 175.728 162.937L176.695 161.92ZM173.479 161.008V159.605C171.782 159.605 170.231 159.969 169.15 161.001L170.119 162.016L171.087 163.031C171.414 162.719 172.103 162.411 173.479 162.411V161.008ZM170.119 162.016L169.175 160.978C168.184 161.879 167.61 163.119 167.347 164.546L168.727 164.8L170.106 165.054C170.291 164.049 170.646 163.433 171.062 163.054L170.119 162.016ZM168.727 164.8L167.342 164.575C167.134 165.853 167.036 167.324 167.036 168.976H168.439H169.842C169.842 167.428 169.935 166.115 170.111 165.025L168.727 164.8ZM168.439 168.976H167.036V184.384H168.439H169.842V168.976H168.439ZM168.439 184.384H167.036C167.036 186.394 167.198 188.089 167.567 189.415L168.919 189.04L170.27 188.664C169.999 187.687 169.842 186.278 169.842 184.384H168.439ZM168.919 189.04L167.57 189.425C167.952 190.763 168.636 191.898 169.736 192.615L170.503 191.44L171.269 190.265C170.897 190.022 170.525 189.557 170.268 188.655L168.919 189.04ZM170.503 191.44L169.736 192.615C170.777 193.294 172.068 193.563 173.479 193.563V192.16V190.757C172.393 190.757 171.7 190.546 171.269 190.265L170.503 191.44ZM173.479 192.16V193.563C175.1 193.563 176.612 193.219 177.639 192.192L176.647 191.2L175.655 190.208C175.402 190.461 174.801 190.757 173.479 190.757V192.16ZM176.647 191.2L177.663 192.168C178.551 191.234 179.046 190.026 179.236 188.657L177.847 188.464L176.457 188.271C176.327 189.206 176.022 189.822 175.631 190.232L176.647 191.2ZM177.847 188.464L179.236 188.657C179.407 187.425 179.49 186.013 179.49 184.432H178.087H176.684C176.684 185.923 176.606 187.199 176.457 188.271L177.847 188.464ZM178.087 184.432H179.49V181.552H178.087H176.684V184.432H178.087ZM178.087 181.552V182.955H183.223V181.552V180.149H178.087V181.552ZM183.223 181.552H181.82V184.432H183.223H184.626V181.552H183.223ZM183.223 184.432H181.82C181.82 186.689 181.545 188.638 181.021 190.298L182.359 190.72L183.696 191.142C184.324 189.154 184.626 186.911 184.626 184.432H183.223ZM182.359 190.72L181.023 190.291C180.53 191.824 179.705 192.975 178.557 193.809L179.383 194.944L180.208 196.079C181.876 194.865 183.035 193.2 183.694 191.149L182.359 190.72ZM179.383 194.944L178.575 193.797C177.493 194.559 175.835 195.029 173.431 195.029V196.432V197.835C176.147 197.835 178.457 197.313 180.191 196.091L179.383 194.944ZM192.662 196H191.259C191.259 196.775 191.887 197.403 192.662 197.403V196ZM192.662 161.152H194.065C194.065 160.377 193.437 159.749 192.662 159.749V161.152ZM186.086 161.152H184.683C184.683 161.927 185.311 162.555 186.086 162.555V161.152ZM186.086 157.12V155.717C185.311 155.717 184.683 156.345 184.683 157.12H186.086ZM204.47 157.12H205.873C205.873 156.345 205.245 155.717 204.47 155.717V157.12ZM204.47 161.152V162.555C205.245 162.555 205.873 161.927 205.873 161.152H204.47ZM198.086 161.152V159.749C197.311 159.749 196.683 160.377 196.683 161.152H198.086ZM198.086 196V197.403C198.861 197.403 199.489 196.775 199.489 196H198.086ZM192.662 196H194.065V161.152H192.662H191.259V196H192.662ZM192.662 161.152V159.749H186.086V161.152V162.555H192.662V161.152ZM186.086 161.152H187.489V157.12H186.086H184.683V161.152H186.086ZM186.086 157.12V158.523H204.47V157.12V155.717H186.086V157.12ZM204.47 157.12H203.067V161.152H204.47H205.873V157.12H204.47ZM204.47 161.152V159.749H198.086V161.152V162.555H204.47V161.152ZM198.086 161.152H196.683V196H198.086H199.489V161.152H198.086ZM198.086 196V194.597H192.662V196V197.403H198.086V196ZM211.725 194.896L212.492 193.721L212.492 193.721L211.725 194.896ZM208.365 190.528L207.041 190.991L207.043 190.998L208.365 190.528ZM208.365 162.496L207.053 161.998L207.049 162.011L208.365 162.496ZM211.725 158.272L212.469 159.462L212.475 159.458L211.725 158.272ZM224.253 158.272L223.492 159.451L223.492 159.451L224.253 158.272ZM227.565 162.496L226.249 162.981C226.251 162.988 226.254 162.994 226.256 163.001L227.565 162.496ZM227.565 190.48L226.251 189.99C226.248 189.996 226.246 190.003 226.243 190.01L227.565 190.48ZM224.253 194.896L225.031 196.063C225.037 196.06 225.043 196.056 225.048 196.052L224.253 194.896ZM221.277 191.296L222.142 192.401C222.152 192.393 222.161 192.386 222.171 192.378L221.277 191.296ZM222.765 188.8L224.129 189.131L224.131 189.121L222.765 188.8ZM222.765 164.272L221.402 164.603L221.404 164.612L222.765 164.272ZM221.277 161.872L220.413 162.977C220.423 162.985 220.433 162.993 220.443 163L221.277 161.872ZM214.701 161.872L215.535 163L215.543 162.994L214.701 161.872ZM213.213 164.272L214.574 164.612L214.577 164.603L213.213 164.272ZM213.213 188.8L211.848 189.121L211.85 189.131L213.213 188.8ZM214.701 191.296L213.808 192.378C213.825 192.392 213.842 192.405 213.859 192.418L214.701 191.296ZM218.013 196.432V195.029C215.557 195.029 213.758 194.548 212.492 193.721L211.725 194.896L210.958 196.071C212.829 197.292 215.222 197.835 218.013 197.835V196.432ZM211.725 194.896L212.492 193.721C211.2 192.877 210.264 191.678 209.687 190.058L208.365 190.528L207.043 190.998C207.811 193.154 209.115 194.867 210.958 196.071L211.725 194.896ZM208.365 190.528L209.689 190.065C209.081 188.326 208.76 186.249 208.76 183.808H207.357H205.954C205.954 186.487 206.305 188.89 207.041 190.991L208.365 190.528ZM207.357 183.808H208.76V169.072H207.357H205.954V183.808H207.357ZM207.357 169.072H208.76C208.76 166.628 209.082 164.609 209.682 162.981L208.365 162.496L207.049 162.011C206.305 164.031 205.954 166.396 205.954 169.072H207.357ZM208.365 162.496L209.677 162.994C210.283 161.395 211.218 160.244 212.469 159.462L211.725 158.272L210.982 157.082C209.161 158.22 207.855 159.885 207.053 161.998L208.365 162.496ZM211.725 158.272L212.475 159.458C213.744 158.655 215.55 158.187 218.013 158.187V156.784V155.381C215.229 155.381 212.842 155.905 210.975 157.086L211.725 158.272ZM218.013 156.784V158.187C220.479 158.187 222.261 158.656 223.492 159.451L224.253 158.272L225.014 157.093C223.173 155.904 220.795 155.381 218.013 155.381V156.784ZM224.253 158.272L223.492 159.451C224.756 160.267 225.675 161.423 226.249 162.981L227.565 162.496L228.882 162.011C228.112 159.921 226.822 158.261 225.014 157.093L224.253 158.272ZM227.565 162.496L226.256 163.001C226.882 164.623 227.218 166.634 227.218 169.072H228.621H230.024C230.024 166.39 229.656 164.017 228.874 161.991L227.565 162.496ZM228.621 169.072H227.218V183.856H228.621H230.024V169.072H228.621ZM228.621 183.856H227.218C227.218 186.258 226.883 188.293 226.251 189.99L227.565 190.48L228.88 190.97C229.655 188.891 230.024 186.51 230.024 183.856H228.621ZM227.565 190.48L226.243 190.01C225.663 191.641 224.732 192.864 223.458 193.74L224.253 194.896L225.048 196.052C226.846 194.816 228.124 193.095 228.887 190.95L227.565 190.48ZM224.253 194.896L223.475 193.729C222.248 194.547 220.472 195.029 218.013 195.029V196.432V197.835C220.802 197.835 223.187 197.293 225.031 196.063L224.253 194.896ZM218.013 192.16V193.563C219.606 193.563 221.057 193.25 222.142 192.401L221.277 191.296L220.413 190.191C220.025 190.494 219.3 190.757 218.013 190.757V192.16ZM221.277 191.296L222.171 192.378C223.172 191.55 223.812 190.439 224.129 189.131L222.765 188.8L221.402 188.469C221.207 189.273 220.854 189.826 220.384 190.214L221.277 191.296ZM222.765 188.8L224.131 189.121C224.418 187.903 224.552 186.527 224.552 185.008H223.149H221.746C221.746 186.369 221.625 187.521 221.4 188.479L222.765 188.8ZM223.149 185.008H224.552V167.968H223.149H221.746V185.008H223.149ZM223.149 167.968H224.552C224.552 166.452 224.418 165.099 224.126 163.932L222.765 164.272L221.404 164.612C221.624 165.493 221.746 166.604 221.746 167.968H223.149ZM222.765 164.272L224.129 163.941C223.81 162.628 223.159 161.519 222.111 160.744L221.277 161.872L220.443 163C220.867 163.313 221.208 163.804 221.402 164.603L222.765 164.272ZM221.277 161.872L222.142 160.767C221.057 159.918 219.606 159.605 218.013 159.605V161.008V162.411C219.3 162.411 220.025 162.674 220.413 162.977L221.277 161.872ZM218.013 161.008V159.605C216.414 159.605 214.965 159.921 213.859 160.75L214.701 161.872L215.543 162.994C215.974 162.671 216.733 162.411 218.013 162.411V161.008ZM214.701 161.872L213.867 160.744C212.819 161.519 212.168 162.628 211.85 163.941L213.213 164.272L214.577 164.603C214.77 163.804 215.111 163.313 215.535 163L214.701 161.872ZM213.213 164.272L211.852 163.932C211.56 165.099 211.426 166.452 211.426 167.968H212.829H214.232C214.232 166.604 214.354 165.493 214.574 164.612L213.213 164.272ZM212.829 167.968H211.426V185.008H212.829H214.232V167.968H212.829ZM212.829 185.008H211.426C211.426 186.527 211.561 187.903 211.848 189.121L213.213 188.8L214.579 188.479C214.354 187.521 214.232 186.369 214.232 185.008H212.829ZM213.213 188.8L211.85 189.131C212.167 190.439 212.806 191.55 213.808 192.378L214.701 191.296L215.595 190.214C215.124 189.826 214.772 189.273 214.577 188.469L213.213 188.8ZM214.701 191.296L213.859 192.418C214.965 193.247 216.414 193.563 218.013 193.563V192.16V190.757C216.733 190.757 215.974 190.497 215.543 190.174L214.701 191.296ZM233.952 196H232.549C232.549 196.775 233.177 197.403 233.952 197.403V196ZM233.952 157.12V155.717C233.177 155.717 232.549 156.345 232.549 157.12H233.952ZM248.208 158.176L247.67 159.472C247.677 159.475 247.684 159.478 247.691 159.48L248.208 158.176ZM251.952 161.488L250.708 162.136C250.713 162.147 250.719 162.157 250.725 162.167L251.952 161.488ZM252.72 171.568L254.077 171.925L254.079 171.916L252.72 171.568ZM251.184 174.688L252.255 175.594C252.261 175.588 252.266 175.581 252.272 175.574L251.184 174.688ZM248.4 176.512L247.957 175.181C247.245 175.418 246.846 176.173 247.05 176.894L248.4 176.512ZM253.92 196V197.403C254.36 197.403 254.774 197.197 255.039 196.846C255.305 196.495 255.39 196.041 255.27 195.618L253.92 196ZM248.688 196L247.337 196.377C247.506 196.983 248.059 197.403 248.688 197.403V196ZM243.6 177.76L244.952 177.383C244.782 176.777 244.23 176.357 243.6 176.357V177.76ZM239.376 177.76V176.357C238.601 176.357 237.973 176.985 237.973 177.76H239.376ZM239.376 196V197.403C240.151 197.403 240.779 196.775 240.779 196H239.376ZM239.376 173.872H237.973C237.973 174.647 238.601 175.275 239.376 175.275V173.872ZM247.296 171.328L248.56 171.938L248.56 171.938L247.296 171.328ZM246.72 162.544L245.631 163.429C245.636 163.434 245.641 163.44 245.645 163.446L246.72 162.544ZM239.376 161.008V159.605C238.601 159.605 237.973 160.233 237.973 161.008H239.376ZM233.952 196H235.355V157.12H233.952H232.549V196H233.952ZM233.952 157.12V158.523H241.776V157.12V155.717H233.952V157.12ZM241.776 157.12V158.523C244.254 158.523 246.2 158.861 247.67 159.472L248.208 158.176L248.746 156.88C246.825 156.083 244.482 155.717 241.776 155.717V157.12ZM248.208 158.176L247.691 159.48C249.092 160.035 250.072 160.916 250.708 162.136L251.952 161.488L253.197 160.84C252.232 158.988 250.716 157.661 248.725 156.872L248.208 158.176ZM251.952 161.488L250.725 162.167C251.402 163.392 251.797 165.117 251.797 167.44H253.2H254.603C254.603 164.835 254.166 162.592 253.18 160.809L251.952 161.488ZM253.2 167.44H251.797C251.797 168.846 251.648 170.102 251.361 171.22L252.72 171.568L254.079 171.916C254.433 170.538 254.603 169.042 254.603 167.44H253.2ZM252.72 171.568L251.363 171.211C251.088 172.258 250.659 173.112 250.097 173.802L251.184 174.688L252.272 175.574C253.118 174.536 253.713 173.31 254.077 171.925L252.72 171.568ZM251.184 174.688L250.113 173.782C249.594 174.395 248.893 174.869 247.957 175.181L248.4 176.512L248.844 177.843C250.211 177.387 251.367 176.645 252.255 175.594L251.184 174.688ZM248.4 176.512L247.05 176.894L252.57 196.382L253.92 196L255.27 195.618L249.75 176.13L248.4 176.512ZM253.92 196V194.597H248.688V196V197.403H253.92V196ZM248.688 196L250.04 195.623L244.952 177.383L243.6 177.76L242.249 178.137L247.337 196.377L248.688 196ZM243.6 177.76V176.357H239.376V177.76V179.163H243.6V177.76ZM239.376 177.76H237.973V196H239.376H240.779V177.76H239.376ZM239.376 196V194.597H233.952V196V197.403H239.376V196ZM239.376 173.872V175.275H241.44V173.872V172.469H239.376V173.872ZM241.44 173.872V175.275C243.076 175.275 244.52 175.073 245.705 174.599L245.184 173.296L244.663 171.993C243.929 172.287 242.876 172.469 241.44 172.469V173.872ZM245.184 173.296L245.705 174.599C246.989 174.085 247.959 173.183 248.56 171.938L247.296 171.328L246.033 170.718C245.738 171.329 245.299 171.739 244.663 171.993L245.184 173.296ZM247.296 171.328L248.56 171.938C249.139 170.738 249.371 169.2 249.371 167.44H247.968H246.565C246.565 169.008 246.349 170.062 246.033 170.718L247.296 171.328ZM247.968 167.44H249.371C249.371 165.063 248.949 163.018 247.795 161.642L246.72 162.544L245.645 163.446C246.156 164.054 246.565 165.273 246.565 167.44H247.968ZM246.72 162.544L247.809 161.659C246.553 160.113 244.323 159.605 241.776 159.605V161.008V162.411C244.157 162.411 245.224 162.927 245.631 163.429L246.72 162.544ZM241.776 161.008V159.605H239.376V161.008V162.411H241.776V161.008ZM239.376 161.008H237.973V173.872H239.376H240.779V161.008H239.376ZM264.092 196H262.689C262.689 196.775 263.317 197.403 264.092 197.403V196ZM264.092 182.272H265.495C265.495 182.121 265.47 181.971 265.422 181.828L264.092 182.272ZM255.692 157.12V155.717C255.241 155.717 254.817 155.934 254.553 156.3C254.29 156.666 254.218 157.137 254.361 157.564L255.692 157.12ZM260.732 157.12L262.069 156.696C261.884 156.113 261.343 155.717 260.732 155.717V157.12ZM266.684 175.888L265.346 176.312C265.532 176.896 266.074 177.292 266.687 177.291C267.3 177.29 267.841 176.891 268.023 176.306L266.684 175.888ZM272.54 157.12V155.717C271.926 155.717 271.383 156.116 271.2 156.702L272.54 157.12ZM277.628 157.12L278.959 157.562C279.101 157.134 279.029 156.664 278.765 156.299C278.502 155.934 278.078 155.717 277.628 155.717V157.12ZM269.276 182.272L267.944 181.83C267.897 181.972 267.873 182.122 267.873 182.272H269.276ZM269.276 196V197.403C270.051 197.403 270.679 196.775 270.679 196H269.276ZM264.092 196H265.495V182.272H264.092H262.689V196H264.092ZM264.092 182.272L265.422 181.828L257.022 156.676L255.692 157.12L254.361 157.564L262.761 182.716L264.092 182.272ZM255.692 157.12V158.523H260.732V157.12V155.717H255.692V157.12ZM260.732 157.12L259.394 157.544L265.346 176.312L266.684 175.888L268.021 175.464L262.069 156.696L260.732 157.12ZM266.684 175.888L268.023 176.306L273.879 157.538L272.54 157.12L271.2 156.702L265.344 175.47L266.684 175.888ZM272.54 157.12V158.523H277.628V157.12V155.717H272.54V157.12ZM277.628 157.12L276.296 156.678L267.944 181.83L269.276 182.272L270.607 182.714L278.959 157.562L277.628 157.12ZM269.276 182.272H267.873V196H269.276H270.679V182.272H269.276ZM269.276 196V194.597H264.092V196V197.403H269.276V196Z" fill="#EC78FF" fill-opacity="0.6" mask="url(#path-39-outside-1_1178_3382)"/>
</g>
<defs>
<filter id="filter0_di_1178_3382" x="88.6889" y="91.8208" width="124.229" height="58.5474" filterUnits="userSpaceOnUse" color-interpolation-filters="sRGB">
<feFlood flood-opacity="0" result="BackgroundImageFix"/>
<feColorMatrix in="SourceAlpha" type="matrix" values="0 0 0 0 0 0 0 0 0 0 0 0 0 0 0 0 0 0 127 0" result="hardAlpha"/>
<feOffset dy="5.61193"/>
<feGaussianBlur stdDeviation="2.80596"/>
<feColorMatrix type="matrix" values="0 0 0 0 0 0 0 0 0 0 0 0 0 0 0 0 0 0 0.08 0"/>
<feBlend mode="normal" in2="BackgroundImageFix" result="effect1_dropShadow_1178_3382"/>
<feBlend mode="normal" in="SourceGraphic" in2="effect1_dropShadow_1178_3382" result="shape"/>
<feColorMatrix in="SourceAlpha" type="matrix" values="0 0 0 0 0 0 0 0 0 0 0 0 0 0 0 0 0 0 127 0" result="hardAlpha"/>
<feOffset dx="5.61193" dy="-11.2239"/>
<feGaussianBlur stdDeviation="0.701491"/>
<feComposite in2="hardAlpha" operator="arithmetic" k2="-1" k3="1"/>
<feColorMatrix type="matrix" values="0 0 0 0 0 0 0 0 0 0 0 0 0 0 0 0 0 0 0.11 0"/>
<feBlend mode="overlay" in2="shape" result="effect2_innerShadow_1178_3382"/>
</filter>
<filter id="filter1_di_1178_3382" x="67.4542" y="68.7888" width="124.229" height="58.5474" filterUnits="userSpaceOnUse" color-interpolation-filters="sRGB">
<feFlood flood-opacity="0" result="BackgroundImageFix"/>
<feColorMatrix in="SourceAlpha" type="matrix" values="0 0 0 0 0 0 0 0 0 0 0 0 0 0 0 0 0 0 127 0" result="hardAlpha"/>
<feOffset dy="5.61193"/>
<feGaussianBlur stdDeviation="2.80596"/>
<feColorMatrix type="matrix" values="0 0 0 0 0 0 0 0 0 0 0 0 0 0 0 0 0 0 0.08 0"/>
<feBlend mode="normal" in2="BackgroundImageFix" result="effect1_dropShadow_1178_3382"/>
<feBlend mode="normal" in="SourceGraphic" in2="effect1_dropShadow_1178_3382" result="shape"/>
<feColorMatrix in="SourceAlpha" type="matrix" values="0 0 0 0 0 0 0 0 0 0 0 0 0 0 0 0 0 0 127 0" result="hardAlpha"/>
<feOffset dx="5.61193" dy="-11.2239"/>
<feGaussianBlur stdDeviation="0.701491"/>
<feComposite in2="hardAlpha" operator="arithmetic" k2="-1" k3="1"/>
<feColorMatrix type="matrix" values="0 0 0 0 0 0 0 0 0 0 0 0 0 0 0 0 0 0 0.19 0"/>
<feBlend mode="overlay" in2="shape" result="effect2_innerShadow_1178_3382"/>
</filter>
<filter id="filter2_di_1178_3382" x="46.7953" y="39.1908" width="124.229" height="58.5474" filterUnits="userSpaceOnUse" color-interpolation-filters="sRGB">
<feFlood flood-opacity="0" result="BackgroundImageFix"/>
<feColorMatrix in="SourceAlpha" type="matrix" values="0 0 0 0 0 0 0 0 0 0 0 0 0 0 0 0 0 0 127 0" result="hardAlpha"/>
<feOffset dy="5.61193"/>
<feGaussianBlur stdDeviation="2.80596"/>
<feColorMatrix type="matrix" values="0 0 0 0 0 0 0 0 0 0 0 0 0 0 0 0 0 0 0.08 0"/>
<feBlend mode="normal" in2="BackgroundImageFix" result="effect1_dropShadow_1178_3382"/>
<feBlend mode="normal" in="SourceGraphic" in2="effect1_dropShadow_1178_3382" result="shape"/>
<feColorMatrix in="SourceAlpha" type="matrix" values="0 0 0 0 0 0 0 0 0 0 0 0 0 0 0 0 0 0 127 0" result="hardAlpha"/>
<feOffset dx="5.61193" dy="-11.2239"/>
<feGaussianBlur stdDeviation="0.701491"/>
<feComposite in2="hardAlpha" operator="arithmetic" k2="-1" k3="1"/>
<feColorMatrix type="matrix" values="0 0 0 0 0 0 0 0 0 0 0 0 0 0 0 0 0 0 0.42 0"/>
<feBlend mode="overlay" in2="shape" result="effect2_innerShadow_1178_3382"/>
</filter>
<filter id="filter3_di_1178_3382" x="189.083" y="91.8208" width="124.229" height="58.5474" filterUnits="userSpaceOnUse" color-interpolation-filters="sRGB">
<feFlood flood-opacity="0" result="BackgroundImageFix"/>
<feColorMatrix in="SourceAlpha" type="matrix" values="0 0 0 0 0 0 0 0 0 0 0 0 0 0 0 0 0 0 127 0" result="hardAlpha"/>
<feOffset dy="5.61193"/>
<feGaussianBlur stdDeviation="2.80596"/>
<feColorMatrix type="matrix" values="0 0 0 0 0 0 0 0 0 0 0 0 0 0 0 0 0 0 0.08 0"/>
<feBlend mode="normal" in2="BackgroundImageFix" result="effect1_dropShadow_1178_3382"/>
<feBlend mode="normal" in="SourceGraphic" in2="effect1_dropShadow_1178_3382" result="shape"/>
<feColorMatrix in="SourceAlpha" type="matrix" values="0 0 0 0 0 0 0 0 0 0 0 0 0 0 0 0 0 0 127 0" result="hardAlpha"/>
<feOffset dx="-5.61193" dy="-11.2239"/>
<feGaussianBlur stdDeviation="0.701491"/>
<feComposite in2="hardAlpha" operator="arithmetic" k2="-1" k3="1"/>
<feColorMatrix type="matrix" values="0 0 0 0 0 0 0 0 0 0 0 0 0 0 0 0 0 0 0.11 0"/>
<feBlend mode="overlay" in2="shape" result="effect2_innerShadow_1178_3382"/>
</filter>
<filter id="filter4_di_1178_3382" x="210.317" y="68.7889" width="124.229" height="58.5474" filterUnits="userSpaceOnUse" color-interpolation-filters="sRGB">
<feFlood flood-opacity="0" result="BackgroundImageFix"/>
<feColorMatrix in="SourceAlpha" type="matrix" values="0 0 0 0 0 0 0 0 0 0 0 0 0 0 0 0 0 0 127 0" result="hardAlpha"/>
<feOffset dy="5.61193"/>
<feGaussianBlur stdDeviation="2.80596"/>
<feColorMatrix type="matrix" values="0 0 0 0 0 0 0 0 0 0 0 0 0 0 0 0 0 0 0.08 0"/>
<feBlend mode="normal" in2="BackgroundImageFix" result="effect1_dropShadow_1178_3382"/>
<feBlend mode="normal" in="SourceGraphic" in2="effect1_dropShadow_1178_3382" result="shape"/>
<feColorMatrix in="SourceAlpha" type="matrix" values="0 0 0 0 0 0 0 0 0 0 0 0 0 0 0 0 0 0 127 0" result="hardAlpha"/>
<feOffset dx="-5.61193" dy="-11.2239"/>
<feGaussianBlur stdDeviation="0.701491"/>
<feComposite in2="hardAlpha" operator="arithmetic" k2="-1" k3="1"/>
<feColorMatrix type="matrix" values="0 0 0 0 0 0 0 0 0 0 0 0 0 0 0 0 0 0 0.19 0"/>
<feBlend mode="overlay" in2="shape" result="effect2_innerShadow_1178_3382"/>
</filter>
<filter id="filter5_di_1178_3382" x="230.976" y="39.1909" width="124.229" height="58.5474" filterUnits="userSpaceOnUse" color-interpolation-filters="sRGB">
<feFlood flood-opacity="0" result="BackgroundImageFix"/>
<feColorMatrix in="SourceAlpha" type="matrix" values="0 0 0 0 0 0 0 0 0 0 0 0 0 0 0 0 0 0 127 0" result="hardAlpha"/>
<feOffset dy="5.61193"/>
<feGaussianBlur stdDeviation="2.80596"/>
<feColorMatrix type="matrix" values="0 0 0 0 0 0 0 0 0 0 0 0 0 0 0 0 0 0 0.08 0"/>
<feBlend mode="normal" in2="BackgroundImageFix" result="effect1_dropShadow_1178_3382"/>
<feBlend mode="normal" in="SourceGraphic" in2="effect1_dropShadow_1178_3382" result="shape"/>
<feColorMatrix in="SourceAlpha" type="matrix" values="0 0 0 0 0 0 0 0 0 0 0 0 0 0 0 0 0 0 127 0" result="hardAlpha"/>
<feOffset dx="-5.61193" dy="-11.2239"/>
<feGaussianBlur stdDeviation="0.701491"/>
<feComposite in2="hardAlpha" operator="arithmetic" k2="-1" k3="1"/>
<feColorMatrix type="matrix" values="0 0 0 0 0 0 0 0 0 0 0 0 0 0 0 0 0 0 0.42 0"/>
<feBlend mode="overlay" in2="shape" result="effect2_innerShadow_1178_3382"/>
</filter>
<filter id="filter6_d_1178_3382" x="151.928" y="0.938376" width="100.123" height="100.123" filterUnits="userSpaceOnUse" color-interpolation-filters="sRGB">
<feFlood flood-opacity="0" result="BackgroundImageFix"/>
<feColorMatrix in="SourceAlpha" type="matrix" values="0 0 0 0 0 0 0 0 0 0 0 0 0 0 0 0 0 0 127 0" result="hardAlpha"/>
<feOffset/>
<feGaussianBlur stdDeviation="5.61193"/>
<feColorMatrix type="matrix" values="0 0 0 0 0 0 0 0 0 0 0 0 0 0 0 0 0 0 0.2 0"/>
<feBlend mode="normal" in2="BackgroundImageFix" result="effect1_dropShadow_1178_3382"/>
<feBlend mode="normal" in="SourceGraphic" in2="effect1_dropShadow_1178_3382" result="shape"/>
</filter>
<filter id="filter7_d_1178_3382" x="192.001" y="40.8648" width="100.123" height="100.123" filterUnits="userSpaceOnUse" color-interpolation-filters="sRGB">
<feFlood flood-opacity="0" result="BackgroundImageFix"/>
<feColorMatrix in="SourceAlpha" type="matrix" values="0 0 0 0 0 0 0 0 0 0 0 0 0 0 0 0 0 0 127 0" result="hardAlpha"/>
<feOffset/>
<feGaussianBlur stdDeviation="5.61193"/>
<feColorMatrix type="matrix" values="0 0 0 0 0 0 0 0 0 0 0 0 0 0 0 0 0 0 0.2 0"/>
<feBlend mode="normal" in2="BackgroundImageFix" result="effect1_dropShadow_1178_3382"/>
<feBlend mode="normal" in="SourceGraphic" in2="effect1_dropShadow_1178_3382" result="shape"/>
</filter>
<filter id="filter8_d_1178_3382" x="152.075" y="80.9384" width="100.123" height="100.123" filterUnits="userSpaceOnUse" color-interpolation-filters="sRGB">
<feFlood flood-opacity="0" result="BackgroundImageFix"/>
<feColorMatrix in="SourceAlpha" type="matrix" values="0 0 0 0 0 0 0 0 0 0 0 0 0 0 0 0 0 0 127 0" result="hardAlpha"/>
<feOffset/>
<feGaussianBlur stdDeviation="5.61193"/>
<feColorMatrix type="matrix" values="0 0 0 0 0 0 0 0 0 0 0 0 0 0 0 0 0 0 0.2 0"/>
<feBlend mode="normal" in2="BackgroundImageFix" result="effect1_dropShadow_1178_3382"/>
<feBlend mode="normal" in="SourceGraphic" in2="effect1_dropShadow_1178_3382" result="shape"/>
</filter>
<filter id="filter9_d_1178_3382" x="112.001" y="41.012" width="100.123" height="100.123" filterUnits="userSpaceOnUse" color-interpolation-filters="sRGB">
<feFlood flood-opacity="0" result="BackgroundImageFix"/>
<feColorMatrix in="SourceAlpha" type="matrix" values="0 0 0 0 0 0 0 0 0 0 0 0 0 0 0 0 0 0 127 0" result="hardAlpha"/>
<feOffset/>
<feGaussianBlur stdDeviation="5.61193"/>
<feColorMatrix type="matrix" values="0 0 0 0 0 0 0 0 0 0 0 0 0 0 0 0 0 0 0.2 0"/>
<feBlend mode="normal" in2="BackgroundImageFix" result="effect1_dropShadow_1178_3382"/>
<feBlend mode="normal" in="SourceGraphic" in2="effect1_dropShadow_1178_3382" result="shape"/>
</filter>
<filter id="filter10_d_1178_3382" x="118.72" y="7.65686" width="166.686" height="166.686" filterUnits="userSpaceOnUse" color-interpolation-filters="sRGB">
<feFlood flood-opacity="0" result="BackgroundImageFix"/>
<feColorMatrix in="SourceAlpha" type="matrix" values="0 0 0 0 0 0 0 0 0 0 0 0 0 0 0 0 0 0 127 0" result="hardAlpha"/>
<feOffset/>
<feGaussianBlur stdDeviation="8"/>
<feColorMatrix type="matrix" values="0 0 0 0 0 0 0 0 0 0 0 0 0 0 0 0 0 0 0.15 0"/>
<feBlend mode="normal" in2="BackgroundImageFix" result="effect1_dropShadow_1178_3382"/>
<feBlend mode="normal" in="SourceGraphic" in2="effect1_dropShadow_1178_3382" result="shape"/>
</filter>
<filter id="filter11_i_1178_3382" x="150.153" y="39.0903" width="103.821" height="105.821" filterUnits="userSpaceOnUse" color-interpolation-filters="sRGB">
<feFlood flood-opacity="0" result="BackgroundImageFix"/>
<feBlend mode="normal" in="SourceGraphic" in2="BackgroundImageFix" result="shape"/>
<feColorMatrix in="SourceAlpha" type="matrix" values="0 0 0 0 0 0 0 0 0 0 0 0 0 0 0 0 0 0 127 0" result="hardAlpha"/>
<feOffset dy="2"/>
<feGaussianBlur stdDeviation="5"/>
<feComposite in2="hardAlpha" operator="arithmetic" k2="-1" k3="1"/>
<feColorMatrix type="matrix" values="0 0 0 0 0 0 0 0 0 0 0 0 0 0 0 0 0 0 0.8 0"/>
<feBlend mode="overlay" in2="shape" result="effect1_innerShadow_1178_3382"/>
</filter>
<filter id="filter12_d_1178_3382" x="68.1036" y="99.2617" width="267.046" height="154.693" filterUnits="userSpaceOnUse" color-interpolation-filters="sRGB">
<feFlood flood-opacity="0" result="BackgroundImageFix"/>
<feColorMatrix in="SourceAlpha" type="matrix" values="0 0 0 0 0 0 0 0 0 0 0 0 0 0 0 0 0 0 127 0" result="hardAlpha"/>
<feOffset/>
<feGaussianBlur stdDeviation="28.0596"/>
<feColorMatrix type="matrix" values="0 0 0 0 0.806667 0 0 0 0 0.395833 0 0 0 0 1 0 0 0 1 0"/>
<feBlend mode="normal" in2="BackgroundImageFix" result="effect1_dropShadow_1178_3382"/>
<feBlend mode="normal" in="SourceGraphic" in2="effect1_dropShadow_1178_3382" result="shape"/>
</filter>
<linearGradient id="paint0_linear_1178_3382" x1="202.063" y1="23.6569" x2="202.063" y2="158.343" gradientUnits="userSpaceOnUse">
<stop stop-color="#FFEB3A"/>
<stop offset="1" stop-color="#FA7002"/>
</linearGradient>
<linearGradient id="paint1_linear_1178_3382" x1="202.063" y1="26.4626" x2="202.063" y2="155.537" gradientUnits="userSpaceOnUse">
<stop stop-color="#FFDE66"/>
<stop offset="1" stop-color="#FB9811"/>
</linearGradient>
<linearGradient id="paint2_linear_1178_3382" x1="202.063" y1="36.2838" x2="202.063" y2="145.716" gradientUnits="userSpaceOnUse">
<stop stop-color="#FFAD31"/>
<stop offset="1" stop-color="#FFD446"/>
</linearGradient>
<radialGradient id="paint3_radial_1178_3382" cx="0" cy="0" r="1" gradientUnits="userSpaceOnUse" gradientTransform="translate(185.685 66.4914) rotate(53.514) scale(78.2229 99.5459)">
<stop stop-color="#ED7CFF"/>
<stop offset="1" stop-color="#6E31E2"/>
</radialGradient>
<radialGradient id="paint4_radial_1178_3382" cx="0" cy="0" r="1" gradientUnits="userSpaceOnUse" gradientTransform="translate(181.099 61.9056) rotate(51.3402) scale(12.5844 25.1951)">
<stop stop-color="white" stop-opacity="0.6"/>
<stop offset="1" stop-color="white" stop-opacity="0"/>
</radialGradient>
<linearGradient id="paint5_linear_1178_3382" x1="189.51" y1="80.4465" x2="196.63" y2="85.6019" gradientUnits="userSpaceOnUse">
<stop stop-color="#FFD2F6"/>
<stop offset="1" stop-color="#FFEEFC"/>
</linearGradient>
<linearGradient id="paint6_linear_1178_3382" x1="206.092" y1="81.7584" x2="217.901" y2="76.9747" gradientUnits="userSpaceOnUse">
<stop stop-color="#FFC2F1"/>
<stop offset="1" stop-color="#FFCDF4"/>
</linearGradient>
<linearGradient id="paint7_linear_1178_3382" x1="204.71" y1="97.5016" x2="210.259" y2="106.943" gradientUnits="userSpaceOnUse">
<stop stop-color="#FF88EF"/>
<stop offset="1" stop-color="#E962D6"/>
</linearGradient>
<linearGradient id="paint8_linear_1178_3382" x1="197.34" y1="94.8777" x2="197.756" y2="110.622" gradientUnits="userSpaceOnUse">
<stop stop-color="#FFCDF4"/>
<stop offset="1" stop-color="#FF97E8"/>
</linearGradient>
<radialGradient id="paint9_radial_1178_3382" cx="0" cy="0" r="1" gradientUnits="userSpaceOnUse" gradientTransform="translate(201 171) rotate(90) scale(24.5522 200.626)">
<stop stop-color="#EC78FF" stop-opacity="0.25"/>
<stop offset="1" stop-color="#EC78FF" stop-opacity="0"/>
</radialGradient>
<radialGradient id="paint10_radial_1178_3382" cx="0" cy="0" r="1" gradientUnits="userSpaceOnUse" gradientTransform="translate(201 171) rotate(90) scale(4.91044 129.074)">
<stop stop-color="#EC78FF" stop-opacity="0.25"/>
<stop offset="1" stop-color="#EC78FF" stop-opacity="0"/>
</radialGradient>
</defs>
</svg>
